<svg xmlns="http://www.w3.org/2000/svg" width="160" height="34" viewBox="0 0 160 34">
    <g fill="#FFF" fill-rule="evenodd">
        <path d="M147.112 33.99c-1.979 0-3.758-.338-5.34-1.015-1.584-.678-2.933-1.625-4.05-2.84-1.118-1.214-1.973-2.651-2.567-4.31-.593-1.66-.89-3.46-.89-5.399 0-1.962.297-3.773.89-5.432.594-1.66 1.45-3.09 2.567-4.294 1.117-1.203 2.466-2.15 4.05-2.839 1.582-.688 3.361-1.034 5.34-1.034 1.954 0 3.723.346 5.306 1.034 1.583.69 2.933 1.636 4.05 2.84 1.116 1.203 1.972 2.634 2.565 4.293.594 1.66.89 3.47.89 5.432 0 1.94-.296 3.74-.89 5.399-.593 1.659-1.449 3.096-2.565 4.31-1.117 1.215-2.467 2.162-4.05 2.84-1.583.677-3.352 1.016-5.306 1.016m.035-4.907c1.117 0 2.095-.222 2.932-.666a6.062 6.062 0 0 0 2.095-1.823c.558-.77.977-1.681 1.256-2.734.28-1.051.42-2.196.42-3.435 0-1.237-.14-2.388-.42-3.451-.279-1.063-.698-1.993-1.256-2.787a5.95 5.95 0 0 0-2.095-1.858c-.837-.443-1.815-.666-2.932-.666s-2.1.223-2.95.666a6.04 6.04 0 0 0-2.13 1.858c-.57.794-1 1.724-1.29 2.787-.292 1.063-.438 2.214-.438 3.451 0 1.239.146 2.384.437 3.435.29 1.053.72 1.964 1.291 2.734.57.771 1.28 1.38 2.13 1.823.85.444 1.833.666 2.95.666m-1.61-26.361a2.717 2.717 0 0 1-2.711 2.723 2.717 2.717 0 0 1-2.712-2.723A2.717 2.717 0 0 1 142.826 0a2.718 2.718 0 0 1 2.712 2.723m8.539 0a2.717 2.717 0 0 1-2.712 2.723 2.717 2.717 0 0 1-2.712-2.723A2.717 2.717 0 0 1 151.365 0a2.718 2.718 0 0 1 2.712 2.723"/>
        <path d="M111.813 7.282h5.934v4.276c0 1.192-.023 2.343-.07 3.453-.047 1.11-.092 2.015-.139 2.716l9.705-10.445h7.121l-10.02 10.48 10.649 15.597h-6.948l-7.923-11.812-2.375 2.489v9.323h-5.934V7.282zM85.526 7.282H91.6l6.842 11.321c.396.679.797 1.409 1.205 2.191.406.783.785 1.525 1.134 2.225l1.221 2.454h.071a92.445 92.445 0 0 1-.174-2.699c-.048-.77-.083-1.6-.106-2.488a94.275 94.275 0 0 1-.035-2.454V7.282h5.691V33.36h-6.11l-6.771-11.18a34.844 34.844 0 0 1-1.222-2.209 204.29 204.29 0 0 1-1.152-2.278 81.761 81.761 0 0 1-1.223-2.488h-.069l.14 2.734c.046.77.086 1.6.122 2.488.035.888.052 1.706.052 2.453v10.48h-5.69V7.282zM67.338 7.282h6.18l9.39 26.077h-6.283l-1.64-4.977h-9.426l-1.606 4.977h-5.97l9.355-26.077zm-.383 16.824h6.668l-1.571-4.872a45.858 45.858 0 0 1-.733-2.576 64.044 64.044 0 0 1-.525-2.226 70.23 70.23 0 0 1-.419-2.138h-.07a205.13 205.13 0 0 1-.557 2.524c-.187.7-.38 1.454-.576 2.26a29.039 29.039 0 0 1-.611 2.156l-1.606 4.872zM28.974 7.282h7.994l3.247 10.866c.232.818.465 1.752.698 2.804.232 1.051.442 2.067.628 3.049.233 1.122.442 2.266.629 3.435h.104a127.928 127.928 0 0 1 1.204-6.484 30.26 30.26 0 0 1 .717-2.804L47.37 7.282h8.1V33.36H49.99V21.69c0-.82.022-1.766.069-2.84.047-1.075.093-2.103.14-3.085.07-1.121.14-2.278.21-3.47h-.07c-.21 1.075-.432 2.138-.664 3.19a86.416 86.416 0 0 1-.646 2.821 54.023 54.023 0 0 1-.715 2.647l-3.7 12.407h-4.889L35.99 20.952a53.11 53.11 0 0 1-.715-2.647 82.279 82.279 0 0 1-.646-2.821 128.632 128.632 0 0 1-.664-3.19h-.069c.07 1.192.14 2.349.21 3.47.046.982.092 2.01.14 3.085a66.31 66.31 0 0 1 .07 2.84v11.67h-5.342V7.282zM12.847 33.99c-1.98 0-3.759-.339-5.342-1.016-1.583-.677-2.932-1.625-4.049-2.84-1.117-1.214-1.972-2.65-2.567-4.31C.297 24.164 0 22.365 0 20.426c0-1.963.297-3.773.89-5.432.594-1.66 1.449-3.09 2.566-4.294 1.117-1.204 2.466-2.15 4.05-2.84 1.582-.688 3.362-1.033 5.34-1.033 1.955 0 3.723.345 5.307 1.034 1.582.689 2.932 1.635 4.05 2.839 1.116 1.204 1.971 2.634 2.564 4.294.595 1.659.891 3.47.891 5.432 0 1.94-.296 3.738-.89 5.398-.594 1.66-1.45 3.096-2.566 4.31-1.117 1.215-2.467 2.163-4.05 2.84-1.583.677-3.351 1.016-5.305 1.016m.035-4.906c1.117 0 2.094-.222 2.932-.667a6.057 6.057 0 0 0 2.094-1.822c.558-.77.978-1.682 1.256-2.735.28-1.05.42-2.196.42-3.434s-.14-2.389-.42-3.452c-.278-1.063-.698-1.993-1.256-2.787a5.948 5.948 0 0 0-2.094-1.858c-.838-.443-1.815-.666-2.932-.666-1.118 0-2.102.223-2.95.666a6.037 6.037 0 0 0-2.13 1.858c-.57.794-1.001 1.724-1.291 2.787-.291 1.063-.437 2.214-.437 3.452s.146 2.383.437 3.434c.29 1.053.72 1.964 1.29 2.735.57.77 1.28 1.379 2.13 1.822.85.445 1.833.667 2.95.667m-1.61-26.361A2.718 2.718 0 0 1 8.56 5.446a2.717 2.717 0 0 1-2.711-2.723A2.717 2.717 0 0 1 8.56 0a2.717 2.717 0 0 1 2.712 2.723m8.539 0a2.718 2.718 0 0 1-2.712 2.723 2.717 2.717 0 0 1-2.711-2.723A2.717 2.717 0 0 1 17.098 0a2.717 2.717 0 0 1 2.713 2.723"/>
    </g>
</svg>
